<svg data-v-423bf9ae="" xmlns="http://www.w3.org/2000/svg" viewBox="0 0 360 90" class="iconLeft"><!----><!----><!----><g data-v-423bf9ae="" id="c164552f-7c7a-4518-aa95-518ca742723a" fill="white" transform="matrix(5.494505456117445,0,0,5.494505456117445,65.26427141465823,3.021978454121893)"><path d="M7.45 2.69L7.45 2.69Q7.64 2.77 7.64 3.22L7.64 3.22L7.64 3.22Q7.64 3.50 7.57 3.88L7.57 3.88L7.57 3.88Q7.50 4.26 7.49 4.37L7.49 4.37L7.49 4.37Q7.39 5.22 7.21 6.30L7.21 6.30L7.21 6.30Q7.01 7.52 6.89 8.18L6.89 8.18L6.89 8.18Q6.76 8.85 6.54 9.53L6.54 9.53L6.54 9.53Q6.27 10.35 5.82 11.02L5.82 11.02L5.82 11.02Q5.38 11.69 4.75 11.83L4.75 11.83L4.75 11.83Q4.61 11.86 4.55 11.86L4.55 11.86L4.55 11.86Q4.14 11.86 3.93 11.49L3.93 11.49L3.93 11.49Q3.72 11.13 3.67 10.72L3.67 10.72L3.67 10.72Q3.61 10.32 3.57 9.70L3.57 9.70L3.57 9.70Q3.30 10.51 3.04 11.07L3.04 11.07L3.04 11.07Q2.77 11.62 2.32 12.03L2.32 12.03L2.32 12.03Q1.95 12.36 1.67 12.36L1.67 12.36L1.67 12.36Q1.19 12.36 1.06 11.37L1.06 11.37L1.06 11.37Q0.95 10.49 0.81 8.72L0.81 8.72L0.81 8.72Q0.64 6.66 0.50 5.68L0.50 5.68L0.50 5.68Q0.48 5.47 0.36 5.00L0.36 5.00L0.36 5.00Q0.28 4.68 0.22 4.33L0.22 4.33L0.22 4.33Q0.15 3.98 0.15 3.70L0.15 3.70L0.15 3.70Q0.15 3.43 0.22 3.18L0.22 3.18L0.22 3.18Q0.34 2.81 0.62 2.50L0.62 2.50L0.62 2.50Q0.91 2.18 1.18 2.18L1.18 2.18L1.18 2.18Q1.48 2.18 1.60 2.62L1.60 2.62L1.60 2.62Q1.79 3.33 1.97 4.56L1.97 4.56L1.97 4.56Q2.00 4.73 2.05 5.05L2.05 5.05L2.05 5.05Q2.10 5.38 2.14 5.60L2.14 5.60L2.14 5.60Q2.42 7.07 2.56 8.54L2.56 8.54L2.67 7.98L2.67 7.98Q2.79 7.35 2.89 6.96L2.89 6.96L2.89 6.96Q3.00 6.57 3.21 6.22L3.21 6.22L3.21 6.22Q3.42 5.87 3.68 5.58L3.68 5.58L3.68 5.58Q3.95 5.29 4.23 5.29L4.23 5.29L4.23 5.29Q4.51 5.29 4.67 5.61L4.67 5.61L4.67 5.61Q4.83 5.92 4.89 6.24L4.89 6.24L4.89 6.24Q4.94 6.55 5.00 7.07L5.00 7.07L5.00 7.07Q5.03 7.35 5.05 7.91L5.05 7.91L5.05 7.91Q5.11 8.95 5.25 9.56L5.25 9.56L5.25 9.56Q5.50 8.55 5.66 6.82L5.66 6.82L5.66 6.82Q5.81 5.47 5.82 5.38L5.82 5.38L5.82 5.38Q5.92 4.69 6.00 4.33L6.00 4.33L6.00 4.33Q6.08 3.98 6.24 3.63L6.24 3.63L6.24 3.63Q6.41 3.30 6.71 2.97L6.71 2.97L6.71 2.97Q7 2.65 7.28 2.65L7.28 2.65L7.28 2.65Q7.36 2.65 7.45 2.69L7.45 2.69ZM11.47 7.41L11.09 8.37L10.98 8.65L11.96 9.48L11.86 9.07L11.86 9.07Q11.76 8.68 11.47 7.41L11.47 7.41ZM12.68 4.28L12.68 4.28Q12.88 5.50 13.18 6.75L13.18 6.75L13.18 6.75Q13.48 8.01 13.92 9.63L13.92 9.63L13.92 9.63Q14.32 11.17 14.45 11.68L14.45 11.68L14.45 11.68Q14.46 11.72 14.46 11.80L14.46 11.80L14.46 11.80Q14.46 12.14 14.08 12.38L14.08 12.38L14.08 12.38Q13.71 12.63 13.30 12.63L13.30 12.63L13.30 12.63Q12.96 12.63 12.78 12.45L12.78 12.45L12.78 12.45Q12.38 12.01 11.93 11.62L11.93 11.62L11.93 11.62Q11.48 11.23 10.75 10.65L10.75 10.65L10.29 10.28L10.29 10.28Q9.70 11.54 9.38 12.14L9.38 12.14L9.38 12.14Q9.28 12.35 8.87 12.52L8.87 12.52L8.87 12.52Q8.46 12.70 8.11 12.70L8.11 12.70L8.11 12.70Q7.71 12.70 7.71 12.45L7.71 12.45L7.71 12.45Q7.71 12.38 7.76 12.28L7.76 12.28L7.76 12.28Q8.18 11.24 8.75 9.90L8.75 9.90L9.04 9.18L9.04 9.18Q8.69 8.83 8.69 8.83L8.69 8.83L8.69 8.83Q8.60 8.74 8.60 8.61L8.60 8.61L8.60 8.61Q8.60 8.37 8.90 8.16L8.90 8.16L8.90 8.16Q9.21 7.94 9.59 7.87L9.59 7.87L9.59 7.87Q10.26 6.26 10.85 4.59L10.85 4.59L10.85 4.59Q10.91 4.40 11.21 4.25L11.21 4.25L11.21 4.25Q11.51 4.10 11.84 4.06L11.84 4.06L11.84 4.06Q12.08 3.99 12.25 3.99L12.25 3.99L12.25 3.99Q12.64 3.99 12.68 4.28L12.68 4.28ZM20.31 4.63L20.31 4.63Q19.98 7.18 19.98 9.44L19.98 9.44L19.98 9.44Q19.98 10.53 20.06 11.65L20.06 11.65L20.06 11.65Q20.09 11.73 20.09 11.79L20.09 11.79L20.09 11.79Q20.09 11.83 20.06 11.91L20.06 11.91L20.06 11.91Q20.06 11.93 20.05 11.93L20.05 11.93L20.05 11.93Q20.05 11.93 20.05 11.93L20.05 11.93L20.05 11.96L20.05 11.96Q19.96 12.19 19.66 12.37L19.66 12.37L19.66 12.37Q19.35 12.54 19.00 12.57L19.00 12.57L19.00 12.57Q18.44 12.63 18.33 12.28L18.33 12.28L18.33 12.28Q17.84 10.96 16.77 8.64L16.77 8.64L16.60 8.25L16.60 8.25Q16.49 10.00 16.46 11.98L16.46 11.98L16.46 11.98Q16.46 12.28 16.07 12.51L16.07 12.51L16.07 12.51Q15.68 12.74 15.27 12.74L15.27 12.74L15.27 12.74Q15.02 12.74 14.87 12.64L14.87 12.64L14.87 12.64Q14.71 12.54 14.73 12.32L14.73 12.32L14.73 12.32Q14.81 8.51 15.27 5.11L15.27 5.11L15.29 5.05L15.29 5.05Q15.26 4.75 15.67 4.49L15.67 4.49L15.67 4.49Q16.07 4.24 16.48 4.24L16.48 4.24L16.48 4.24Q16.90 4.24 17.00 4.52L17.00 4.52L17.00 4.52Q17.44 5.74 18.33 7.66L18.33 7.66L18.33 7.66Q18.41 6.34 18.62 4.98L18.62 4.98L18.62 4.98Q18.66 4.70 19.07 4.49L19.07 4.49L19.07 4.49Q19.47 4.27 19.87 4.27L19.87 4.27L19.87 4.27Q20.37 4.27 20.31 4.63L20.31 4.63ZM22.46 10.21L22.46 10.21Q23.93 9.07 24.77 7.80L24.77 7.80L24.77 7.80Q23.65 7.46 22.51 6.44L22.51 6.44L22.51 6.44Q22.48 7.71 22.46 10.21L22.46 10.21ZM26.50 7.03L26.50 7.03Q26.60 7.10 26.60 7.21L26.60 7.21L26.60 7.21Q26.60 7.31 26.54 7.41L26.54 7.41L26.54 7.41Q25.80 8.83 24.58 9.94L24.58 9.94L24.58 9.94Q23.37 11.05 21.63 12.15L21.63 12.15L21.63 12.15Q21.46 12.25 21.25 12.33L21.25 12.33L21.25 12.33Q21.04 12.40 20.85 12.40L20.85 12.40L20.85 12.40Q20.64 12.40 20.48 12.29L20.48 12.29L20.48 12.29Q20.31 12.17 20.31 11.98L20.31 11.98L20.31 11.98Q20.31 11.75 20.58 11.56L20.58 11.56L20.58 11.56Q20.61 11.55 20.64 11.52L20.64 11.52L20.64 11.52Q20.66 11.49 20.72 11.47L20.72 11.47L20.78 7.99L20.78 7.99Q20.80 6.86 20.83 4.54L20.83 4.54L20.83 4.54Q20.82 4.51 20.82 4.44L20.82 4.44L20.82 4.44Q20.82 4.41 20.85 4.30L20.85 4.30L20.85 4.14L20.85 4.14Q20.86 3.88 21.21 3.69L21.21 3.69L21.21 3.69Q21.56 3.50 21.95 3.50L21.95 3.50L21.95 3.50Q22.22 3.50 22.38 3.60L22.38 3.60L22.38 3.60Q22.54 3.70 22.54 3.91L22.54 3.91L22.54 4.05L22.54 4.05Q24.23 6.38 26.24 6.90L26.24 6.90L26.24 6.90Q26.45 6.97 26.50 7.03L26.50 7.03ZM32.77 11.14L32.77 11.14Q32.98 11.21 32.98 11.40L32.98 11.40L32.98 11.40Q32.98 11.62 32.72 11.89L32.72 11.89L32.72 11.89Q32.42 12.18 31.96 12.18L31.96 12.18L31.96 12.18Q31.74 12.18 31.58 12.12L31.58 12.12L31.58 12.12Q30.84 11.89 30.24 11.89L30.24 11.89L30.24 11.89Q29.19 11.89 28.10 12.56L28.10 12.56L28.10 12.56Q27.92 12.68 27.66 12.76L27.66 12.76L27.66 12.76Q27.40 12.84 27.17 12.84L27.17 12.84L27.17 12.84Q26.96 12.84 26.84 12.76L26.84 12.76L26.84 12.76Q26.71 12.68 26.71 12.52L26.71 12.52L26.71 12.52Q26.71 12.42 26.74 12.35L26.74 12.35L26.74 12.35Q27.15 11.21 27.39 10.30L27.39 10.30L27.39 10.30Q27.64 9.39 27.72 8.46L27.72 8.46L27.72 8.46Q27.85 7.20 27.85 6.61L27.85 6.61L27.85 6.61Q27.85 5.05 27.24 4.23L27.24 4.23L27.24 4.23Q27.17 4.14 27.17 4.00L27.17 4.00L27.17 4.00Q27.17 3.72 27.57 3.48L27.57 3.48L27.57 3.48Q27.96 3.23 28.34 3.23L28.34 3.23L28.34 3.23Q28.59 3.23 28.70 3.35L28.70 3.35L28.70 3.35Q28.88 3.42 28.94 3.57L28.94 3.57L28.94 3.57Q29.29 4.49 29.90 5.13L29.90 5.13L29.90 5.13Q30.52 5.77 31.36 5.77L31.36 5.77L31.36 5.77Q31.51 5.77 31.82 5.71L31.82 5.71L31.82 5.71Q32.02 5.68 32.07 5.68L32.07 5.68L32.07 5.68Q32.31 5.68 32.43 5.79L32.43 5.79L32.43 5.79Q32.55 5.89 32.55 6.08L32.55 6.08L32.55 6.08Q32.55 6.27 32.39 6.47L32.39 6.47L32.39 6.47Q32.23 6.66 31.96 6.75L31.96 6.75L31.96 6.75Q31.39 6.94 30.81 6.94L30.81 6.94L30.81 6.94Q30.13 6.94 29.50 6.66L29.50 6.66L29.50 6.66Q29.47 7.45 29.43 7.84L29.43 7.84L29.33 8.72L29.33 8.72Q29.88 8.62 30.42 8.55L30.42 8.55L30.62 8.54L30.62 8.54Q31.18 8.54 31.18 8.92L31.18 8.92L31.18 8.92Q31.18 9.17 30.90 9.37L30.90 9.37L30.90 9.37Q30.62 9.56 30.32 9.62L30.32 9.62L30.32 9.62Q29.89 9.70 29.13 9.80L29.13 9.80L29.13 9.80Q28.98 10.49 28.80 11.09L28.80 11.09L28.80 11.09Q29.72 10.75 30.67 10.75L30.67 10.75L30.67 10.75Q31.72 10.75 32.77 11.14L32.77 11.14ZM35.78 7.98L36.19 7.64L36.19 7.64Q36.74 7.21 37.08 6.87L37.08 6.87L37.08 6.87Q37.42 6.54 37.60 6.20L37.60 6.20L37.60 6.20Q36.85 6.01 35.36 5.56L35.36 5.56L35.29 8.40L35.29 8.40Q35.71 8.05 35.78 7.98L35.78 7.98ZM38.44 9.60L38.44 9.60Q38.56 9.38 38.92 9.22L38.92 9.22L38.92 9.22Q39.28 9.06 39.62 9.06L39.62 9.06L39.62 9.06Q40.08 9.06 40.08 9.35L40.08 9.35L40.08 9.35Q40.08 9.44 40.04 9.55L40.04 9.55L40.04 9.55Q39.47 10.89 39.17 12.15L39.17 12.15L39.17 12.15Q39.10 12.43 38.77 12.67L38.77 12.67L38.77 12.67Q38.63 12.85 38.34 12.98L38.34 12.98L38.34 12.98Q38.05 13.10 37.77 13.10L37.77 13.10L37.77 13.10Q37.53 13.10 37.39 13.01L37.39 13.01L37.39 13.01Q37.24 12.91 37.23 12.70L37.23 12.70L37.23 12.70Q37.17 11.79 36.63 11.03L36.63 11.03L36.63 11.03Q36.09 10.28 35.25 10.05L35.25 10.05L35.18 12.08L35.18 12.08Q35.17 12.35 34.74 12.57L34.74 12.57L34.74 12.57Q34.31 12.80 33.92 12.80L33.92 12.80L33.92 12.80Q33.71 12.80 33.59 12.72L33.59 12.72L33.59 12.72Q33.46 12.64 33.46 12.47L33.46 12.47L33.50 10.54L33.50 10.54Q33.32 10.42 33.32 10.25L33.32 10.25L33.32 10.25Q33.32 10.05 33.53 9.87L33.53 9.87L33.53 9.87Q33.60 7.32 33.70 4.79L33.70 4.79L33.70 4.79Q33.71 4.49 34.10 4.28L34.10 4.28L34.10 4.28Q34.48 4.06 34.87 4.06L34.87 4.06L34.87 4.06Q35.17 4.06 35.29 4.20L35.29 4.20L35.29 4.20Q36.82 4.62 38.46 5.12L38.46 5.12L38.46 5.12Q38.71 5.07 38.81 5.07L38.81 5.07L38.81 5.07Q39.05 5.07 39.18 5.17L39.18 5.17L39.18 5.17Q39.31 5.28 39.31 5.49L39.31 5.49L39.31 5.49Q39.31 6.06 38.93 6.54L38.93 6.54L38.93 6.54Q38.56 7.03 37.88 7.62L37.88 7.62L37.60 7.87L37.60 7.87Q36.93 8.53 36.30 9.03L36.30 9.03L36.30 9.03Q37.45 9.35 38.15 10.30L38.15 10.30L38.15 10.30Q38.21 10.16 38.44 9.60L38.44 9.60ZM46.31 11.14L46.31 11.14Q46.52 11.21 46.52 11.40L46.52 11.40L46.52 11.40Q46.52 11.62 46.26 11.89L46.26 11.89L46.26 11.89Q45.96 12.18 45.50 12.18L45.50 12.18L45.50 12.18Q45.28 12.18 45.12 12.12L45.12 12.12L45.12 12.12Q44.38 11.89 43.78 11.89L43.78 11.89L43.78 11.89Q42.73 11.89 41.64 12.56L41.64 12.56L41.64 12.56Q41.45 12.68 41.20 12.76L41.20 12.76L41.20 12.76Q40.94 12.84 40.71 12.84L40.71 12.84L40.71 12.84Q40.50 12.84 40.38 12.76L40.38 12.76L40.38 12.76Q40.25 12.68 40.25 12.52L40.25 12.52L40.25 12.52Q40.25 12.42 40.28 12.35L40.28 12.35L40.28 12.35Q40.68 11.21 40.93 10.30L40.93 10.30L40.93 10.30Q41.17 9.39 41.26 8.46L41.26 8.46L41.26 8.46Q41.38 7.20 41.38 6.61L41.38 6.61L41.38 6.61Q41.38 5.05 40.78 4.23L40.78 4.23L40.78 4.23Q40.71 4.14 40.71 4.00L40.71 4.00L40.71 4.00Q40.71 3.72 41.10 3.48L41.10 3.48L41.10 3.48Q41.50 3.23 41.87 3.23L41.87 3.23L41.87 3.23Q42.13 3.23 42.24 3.35L42.24 3.35L42.24 3.35Q42.42 3.42 42.48 3.57L42.48 3.57L42.48 3.57Q42.83 4.49 43.44 5.13L43.44 5.13L43.44 5.13Q44.06 5.77 44.90 5.77L44.90 5.77L44.90 5.77Q45.05 5.77 45.36 5.71L45.36 5.71L45.36 5.71Q45.56 5.68 45.61 5.68L45.61 5.68L45.61 5.68Q45.85 5.68 45.97 5.79L45.97 5.79L45.97 5.79Q46.09 5.89 46.09 6.08L46.09 6.08L46.09 6.08Q46.09 6.27 45.93 6.47L45.93 6.47L45.93 6.47Q45.77 6.66 45.50 6.75L45.50 6.75L45.50 6.75Q44.93 6.94 44.35 6.94L44.35 6.94L44.35 6.94Q43.67 6.94 43.04 6.66L43.04 6.66L43.04 6.66Q43.01 7.45 42.97 7.84L42.97 7.84L42.87 8.72L42.87 8.72Q43.41 8.62 43.96 8.55L43.96 8.55L44.16 8.54L44.16 8.54Q44.72 8.54 44.72 8.92L44.72 8.92L44.72 8.92Q44.72 9.17 44.44 9.37L44.44 9.37L44.44 9.37Q44.16 9.56 43.86 9.62L43.86 9.62L43.86 9.62Q43.43 9.70 42.67 9.80L42.67 9.80L42.67 9.80Q42.52 10.49 42.34 11.09L42.34 11.09L42.34 11.09Q43.26 10.75 44.21 10.75L44.21 10.75L44.21 10.75Q45.26 10.75 46.31 11.14L46.31 11.14ZM49.32 7.98L49.73 7.64L49.73 7.64Q50.27 7.21 50.62 6.87L50.62 6.87L50.62 6.87Q50.96 6.54 51.14 6.20L51.14 6.20L51.14 6.20Q50.39 6.01 48.90 5.56L48.90 5.56L48.83 8.40L48.83 8.40Q49.25 8.05 49.32 7.98L49.32 7.98ZM51.98 9.60L51.98 9.60Q52.09 9.38 52.46 9.22L52.46 9.22L52.46 9.22Q52.82 9.06 53.16 9.06L53.16 9.06L53.16 9.06Q53.62 9.06 53.62 9.35L53.62 9.35L53.62 9.35Q53.62 9.44 53.58 9.55L53.58 9.55L53.58 9.55Q53.00 10.89 52.71 12.15L52.71 12.15L52.71 12.15Q52.64 12.43 52.30 12.67L52.30 12.67L52.30 12.67Q52.16 12.85 51.88 12.98L51.88 12.98L51.88 12.98Q51.59 13.10 51.31 13.10L51.31 13.10L51.31 13.10Q51.07 13.10 50.92 13.01L50.92 13.01L50.92 13.01Q50.78 12.91 50.76 12.70L50.76 12.70L50.76 12.70Q50.71 11.79 50.17 11.03L50.17 11.03L50.17 11.03Q49.63 10.28 48.79 10.05L48.79 10.05L48.72 12.08L48.72 12.08Q48.71 12.35 48.28 12.57L48.28 12.57L48.28 12.57Q47.85 12.80 47.46 12.80L47.46 12.80L47.46 12.80Q47.25 12.80 47.12 12.72L47.12 12.72L47.12 12.72Q47.00 12.64 47.00 12.47L47.00 12.47L47.04 10.54L47.04 10.54Q46.86 10.42 46.86 10.25L46.86 10.25L46.86 10.25Q46.86 10.05 47.07 9.87L47.07 9.87L47.07 9.87Q47.14 7.32 47.24 4.79L47.24 4.79L47.24 4.79Q47.25 4.49 47.63 4.28L47.63 4.28L47.63 4.28Q48.02 4.06 48.41 4.06L48.41 4.06L48.41 4.06Q48.71 4.06 48.83 4.20L48.83 4.20L48.83 4.20Q50.36 4.62 52.00 5.12L52.00 5.12L52.00 5.12Q52.25 5.07 52.35 5.07L52.35 5.07L52.35 5.07Q52.58 5.07 52.72 5.17L52.72 5.17L52.72 5.17Q52.85 5.28 52.85 5.49L52.85 5.49L52.85 5.49Q52.85 6.06 52.47 6.54L52.47 6.54L52.47 6.54Q52.09 7.03 51.42 7.62L51.42 7.62L51.14 7.87L51.14 7.87Q50.47 8.53 49.84 9.03L49.84 9.03L49.84 9.03Q50.99 9.35 51.69 10.30L51.69 10.30L51.69 10.30Q51.74 10.16 51.98 9.60L51.98 9.60Z"></path></g><!----><g data-v-423bf9ae="" id="8030943c-3b11-4fa0-a6dd-6776a95e03f4" transform="matrix(2.8125,0,0,2.8125,-21.194407999515533,0)" stroke="none" fill="white"><path d="M18.396 26.495L7.807 15.905 18.432 5.28l.707.707-9.918 9.918 9.882 9.883z"></path><path d="M23.194 1v4.194H19V1h4.194m1-1H18v6.194h6.194V0zM23.194 26.806V31H19v-4.194h4.194m1-1H18V32h6.194v-6.194z"></path></g><!----></svg>